<svg width="2266" height="2266" viewBox="0 0 2266 2266" fill="none" xmlns="http://www.w3.org/2000/svg">
<g clip-path="url(#clip0_409_57)">
<path d="M1149.36 2132.2C731.381 2132.2 392.572 1789.39 392.572 1366.52C392.572 943.655 743.521 493.722 1159.9 115.195C1560.06 482.907 1906.14 943.655 1906.14 1366.52C1906.14 1789.39 1567.3 2132.2 1149.36 2132.2V2132.2Z" fill="#73CDFB"/>
<path d="M394.302 1317.53C834.042 2443.05 1785.77 1631.92 1885.08 1534.1C1842.22 1761.23 1677.71 1965.38 1460.8 2064.58C1361.12 2110.16 1258.66 2130.82 1149.36 2132.22C1091.87 2132.2 1034.43 2125.68 978.442 2112.61C761.143 2061.9 575.96 1913.87 475.353 1715.13C422.7 1611.1 397.16 1502.52 392.807 1386.33C392.318 1355.93 392.334 1374.16 393.594 1331.64L394.302 1317.53Z" fill="#5191B3" fill-opacity="0.347"/>
<path d="M1567.99 1246.35H1454.38H1431.22C1455.73 1226.12 1479.61 1201.32 1500.11 1171.01C1604.09 1017.28 1618.09 859.906 1609.35 794.3C1546.97 812.783 1491.86 837.507 1438.25 880.093C1434.92 804.432 1418.77 744.876 1404.03 712.542C1376.16 730.93 1350.6 750.338 1327.06 772.485C1294.33 643.487 1237.76 549.695 1200.04 507.316C1130.44 591.993 1082.11 679.111 1060.26 806.905C1023.86 774.208 984.372 749.712 940.189 728.038C930.539 759.179 922.614 813.206 926.229 880.2C882.671 851.471 837.414 832.685 787.502 817.896C778.757 883.501 792.76 1040.88 896.744 1194.61C909.884 1214.04 924.422 1231.19 939.619 1246.35H804.966C622.655 1246.35 730.685 1554.53 788.095 1650.64C852.238 1760.01 940.019 1846.16 1024.43 1846.16H1142.58H1177.39H1230.38H1348.53C1436.32 1846.16 1520.72 1760.01 1584.87 1650.64C1642.27 1554.53 1753.68 1246.35 1567.99 1246.35Z" fill="#489FEF"/>
<path d="M1371.4 696.226C1270.64 762.705 1200.05 842.428 1146.05 1017.26C1100.54 1164.62 1168.75 1297.85 1168.75 1297.85L1184.12 1302.6L1199.48 1307.34C1199.48 1307.34 1330.95 1235.79 1376.46 1088.43C1431.23 911.098 1398.85 756.452 1371.4 696.226Z" fill="#34A853"/>
<path d="M1199.48 1307.34C1199.48 1307.34 1330.95 1235.79 1376.46 1088.43C1431.23 911.097 1398.85 756.451 1371.4 696.225L1184.12 1302.6L1199.48 1307.34Z" fill="#1D8735"/>
<path d="M1576.72 777.984C1460.98 812.279 1370.25 868.022 1267.73 1019.59C1181.32 1147.34 1207.83 1294.65 1207.83 1294.65L1221.16 1303.66L1234.47 1312.67C1234.47 1312.67 1381.07 1282.45 1467.48 1154.7C1571.46 1000.97 1585.46 843.59 1576.72 777.984Z" fill="#34A853"/>
<path d="M1234.47 1312.67C1234.47 1312.67 1381.07 1282.45 1467.48 1154.7C1571.46 1000.97 1585.46 843.59 1576.72 777.984L1221.15 1303.66L1234.47 1312.67Z" fill="#1D8735"/>
<path d="M952.267 1101.4C1016.1 1241.8 1155.58 1296.11 1155.58 1296.11L1170.21 1289.46L1184.86 1282.8C1184.86 1282.8 1235.63 1142 1171.79 1001.6C1096.06 835.019 1015.94 764.889 907.558 711.723C887.966 774.943 875.454 932.446 952.267 1101.4Z" fill="#1D8735"/>
<path d="M1155.58 1296.11C1155.58 1296.11 1016.1 1241.8 952.267 1101.4C875.454 932.446 887.966 774.943 907.558 711.723L1170.21 1289.46L1155.58 1296.11Z" fill="#34A853"/>
<path d="M864.113 1178.29C950.524 1306.04 1097.13 1336.26 1097.13 1336.26L1110.44 1327.26L1123.76 1318.24C1123.76 1318.24 1150.27 1170.94 1063.86 1043.19C961.339 891.618 870.618 835.874 754.871 801.58C746.126 867.186 760.13 1024.57 864.113 1178.29Z" fill="#1D8735"/>
<path d="M1097.12 1336.26C1097.12 1336.26 950.523 1306.04 864.113 1178.29C760.129 1024.57 746.126 867.186 754.87 801.58L1110.44 1327.26L1097.12 1336.26Z" fill="#34A853"/>
<path d="M1167.41 491C1070.16 609.309 1014.45 732.367 1014.45 964.501C1014.45 1160.16 1147 1296.11 1147 1296.11H1167.41H1187.8C1187.8 1296.11 1320.37 1160.16 1320.37 964.501C1320.37 729.053 1223.23 553.724 1167.41 491Z" fill="#34A853"/>
<path d="M1187.8 1296.11C1187.8 1296.11 1320.37 1160.16 1320.37 964.501C1320.37 729.053 1223.23 553.724 1167.41 491V1296.11H1187.8V1296.11Z" fill="#1D8735"/>
<path d="M1535.36 1230.03H1197.74H1109.95H772.334C590.024 1230.03 698.054 1538.22 755.463 1634.32C819.607 1743.69 907.387 1829.84 991.798 1829.84H1109.95H1197.74H1315.9C1403.69 1829.84 1488.09 1743.69 1552.24 1634.32C1609.64 1538.22 1721.05 1230.03 1535.36 1230.03Z" fill="#EFF0F2"/>
<path d="M1535.36 1230.03H1421.74C1444.59 1283.63 1457.24 1342.61 1457.24 1404.55C1457.24 1604.26 1325.83 1773.27 1144.76 1829.84H1197.74H1315.9C1403.69 1829.84 1488.09 1743.69 1552.24 1634.32C1609.64 1538.22 1721.05 1230.03 1535.36 1230.03Z" fill="#D3D3D3"/>
<path d="M1745.02 1229.2C1695.08 1241.24 1661.26 1315.36 1632.35 1356.34C1591.04 1414.92 1570.1 1707.35 1705.42 1683.96C1725.99 1680.41 1751.07 1680.38 1768.44 1667.58C1846.23 1610.3 1972.93 1187.75 1731.16 1229.52" fill="white" fill-opacity="0.274"/>
<path d="M1091.25 397.576C968.16 464.497 672.736 836.235 610.036 961.635C562.106 1057.49 523.515 1195.04 523.515 1302.31C523.515 1358.69 486.536 1456.41 545.146 1491.57C554.419 1497.14 566.776 1491.57 577.591 1491.57C655.283 1491.57 690.489 1428.66 712.779 1361.79C808.9 1073.44 887.815 774.778 1058.86 518.218C1080 486.516 1115.34 444.338 1102.12 404.66" fill="white" fill-opacity="0.525"/>
<path d="M1040.43 1374V1654H972.75V1374H1040.43ZM1196.79 1374V1654H1129.11V1374H1196.79ZM1353.15 1374V1654H1285.47V1374H1353.15Z" fill="#489FEF"/>
</g>
<defs>
<clipPath id="clip0_409_57">
<rect width="2266" height="2266" fill="white"/>
</clipPath>
</defs>
</svg>
