<svg width="941" height="251" viewBox="0 0 941 251" fill="none" xmlns="http://www.w3.org/2000/svg">
<path fill-rule="evenodd" clip-rule="evenodd" d="M216.937 9.1992C159.49 8.19787 51.0808 41.8328 0.00878906 30.4173V250.14H940.83V21.98C940.83 67.7229 939.7 19.7448 938.348 19.4977C889.998 10.6631 852.033 32.7489 803.457 31.6331C763.235 30.7088 672.609 20.7862 632.278 23.2547C553.415 28.0811 525.615 42.7341 443.126 43.8019C357.2 44.9131 302.113 12.3277 216.929 9.1992H216.937Z" fill="#4DD0E1" fill-opacity="0.62011"/>
<path fill-rule="evenodd" clip-rule="evenodd" d="M23.0009 0.676777C10.299 0.488169 0.0078125 1.36295 0.0078125 2.22196V250.137H940.829V21.9766C940.829 67.7195 939.699 19.7414 938.346 19.4943C889.997 10.6597 855.131 11.0463 806.549 9.9299C766.327 9.00561 674.464 35.0414 634.133 37.5086C555.27 42.335 512.139 22.059 429.653 23.1256C343.727 24.2368 286.987 31.1532 201.813 28.0239C142.777 25.8549 74.7841 6.46228 46.7628 2.39614C39.1091 1.28575 30.6199 0.78995 22.9985 0.676777H23.0009Z" fill="#4DD0E1" fill-opacity="0.62011"/>
<path fill-rule="evenodd" clip-rule="evenodd" d="M200.03 65.0288C142.064 65.7771 49.47 90.4805 -0.00195312 80.6992V250.15H940.819V73.2432C940.819 113.704 939.689 71.2668 938.337 71.0483C889.987 63.2339 852.022 82.7667 803.446 81.7789C763.224 80.9614 672.598 72.1877 632.268 74.3707C553.405 78.6399 525.604 91.6017 443.116 92.5457C357.189 93.5285 290.7 67.8065 205.526 65.0385C203.731 65.0107 201.895 65.0116 200.025 65.0353L200.03 65.0288Z" fill="#48C9DA" fill-opacity="0.62011"/>
<path fill-rule="evenodd" clip-rule="evenodd" d="M23.0009 84.986C10.299 84.8316 0.0078125 85.5487 0.0078125 86.252V250.135H940.829V102.423C940.829 139.874 939.699 100.596 938.346 100.394C889.997 93.1604 855.131 93.4766 806.549 92.5626C766.327 91.8058 674.464 113.124 634.133 115.144C555.27 119.096 512.139 102.494 429.653 103.368C343.727 104.278 286.987 109.938 201.813 107.376C142.777 105.6 74.7841 89.7238 46.7628 86.3958C39.1091 85.4867 30.6199 85.0787 22.9985 84.986H23.0009Z" fill="#74E1EF" fill-opacity="0.2514"/>
<path fill-rule="evenodd" clip-rule="evenodd" d="M122.459 122.063C65.0128 121.315 51.0746 148.802 0.00585938 140.266V250.143H940.827V133.951C940.827 168.154 939.682 132.367 938.345 132.097C805.822 105.325 800.03 154.618 706.729 157.29C666.517 158.442 601.92 129.341 561.598 131.188C482.735 134.797 437.577 156.914 355.091 157.71C269.165 158.541 207.635 124.399 122.451 122.059L122.459 122.063Z" fill="#48C9DA" fill-opacity="0.62011"/>
<path fill-rule="evenodd" clip-rule="evenodd" d="M97.9311 153.359C89.0044 153.174 0.00683594 165.807 0.00683594 166.584V250.144H940.828V179.333C940.828 208.859 939.698 177.892 938.346 177.732C889.996 172.03 855.13 172.277 806.548 171.557C766.326 170.96 674.463 187.768 634.132 189.362C555.269 192.477 540.657 170.708 458.164 171.397C372.238 172.114 275.818 206.339 190.644 204.32C167.243 203.307 -21.4195 163.837 96.3501 154.297C98.8359 153.676 99.1954 153.386 97.9202 153.36L97.9311 153.359Z" fill="#74E1EF" fill-opacity="0.2514"/>
</svg>
