<svg width="1914" height="1830" viewBox="0 0 1914 1830" fill="none" xmlns="http://www.w3.org/2000/svg">
<g clip-path="url(#clip0_503_126)">
<path d="M2422 -281H-53V2027H2422V-281Z" fill="#FFDBAD"/>
<path d="M1914.43 3822C3050.71 3822 3971.86 3049.26 3971.86 2096.04C3971.86 1142.81 3050.71 370.072 1914.43 370.072C778.142 370.072 -143 1142.81 -143 2096.04C-143 3049.26 778.142 3822 1914.43 3822Z" fill="#FFD299"/>
<path d="M1754.27 938.112C1744.92 921.846 1732.37 908.38 1717.6 898.679C1717.62 897.979 1717.64 897.279 1717.64 896.555V527.611C1717.64 519.31 1716.19 511.225 1713.34 503.623C1710.57 496.287 1706.63 489.699 1701.61 484.051C1696.6 478.404 1690.75 473.964 1684.23 470.851C1677.48 467.641 1670.3 466 1662.93 466C1655.56 466 1648.38 467.641 1641.63 470.851C1635.11 473.964 1629.26 478.404 1624.25 484.051C1619.23 489.699 1615.29 496.287 1612.53 503.623C1609.68 511.225 1608.22 519.31 1608.22 527.611V896.603C1608.22 897.303 1608.24 898.003 1608.26 898.727C1593.5 908.404 1580.94 921.87 1571.59 938.16C1560.24 957.949 1554.21 980.899 1554.21 1004.57C1554.21 1021.1 1557.09 1037.13 1562.77 1052.24C1568.23 1066.81 1576.07 1079.92 1586.06 1091.14C1596.05 1102.38 1607.66 1111.19 1620.61 1117.37C1634.02 1123.77 1648.25 1127 1662.93 1127C1677.61 1127 1691.84 1123.77 1705.26 1117.37C1718.2 1111.19 1729.84 1102.38 1739.8 1091.14C1749.79 1079.89 1757.61 1066.81 1763.1 1052.24C1768.78 1037.13 1771.65 1021.1 1771.65 1004.57C1771.63 980.875 1765.63 957.901 1754.27 938.112ZM1662.91 1112.47C1609.98 1112.47 1567.05 1064.13 1567.05 1004.53C1567.05 961.376 1589.53 924.139 1622.04 906.86C1621.4 903.554 1621.03 900.127 1621.03 896.579V527.611C1621.03 501.572 1639.79 480.48 1662.89 480.48C1685.99 480.48 1704.74 501.572 1704.74 527.611V896.603C1704.74 900.127 1704.4 903.578 1703.73 906.884C1736.24 924.163 1758.73 961.4 1758.73 1004.55C1758.77 1064.13 1715.86 1112.47 1662.91 1112.47Z" fill="#BC1C1C"/>
<path d="M1748.05 1004.53C1748.05 1015.05 1746.58 1025.3 1743.64 1035.13C1743.15 1036.77 1742.61 1038.38 1742.05 1040C1741.84 1040.63 1741.6 1041.23 1741.39 1041.84C1737.1 1053.25 1730.95 1063.51 1723.13 1072.32C1715.31 1081.12 1706.2 1088.05 1696.06 1092.88C1685.58 1097.87 1674.42 1100.41 1662.93 1100.41C1651.45 1100.41 1640.28 1097.87 1629.8 1092.88C1619.66 1088.05 1610.56 1081.12 1602.73 1072.32C1594.91 1063.51 1588.76 1053.25 1584.48 1041.84C1584.24 1041.23 1584.03 1040.6 1583.81 1040C1583.23 1038.38 1582.72 1036.77 1582.23 1035.13C1579.29 1025.3 1577.79 1015.05 1577.79 1004.53C1577.79 985.992 1582.48 968.013 1591.38 952.544C1600.06 937.46 1612.23 925.418 1626.63 917.768L1631.77 915.041L1634.37 913.665L1632.5 904.254C1632.01 901.744 1631.75 899.186 1631.75 896.603V659.715C1631.75 640.385 1645.72 624.65 1662.89 624.65C1680.06 624.65 1694.03 640.385 1694.03 659.715V896.579C1694.03 899.162 1693.77 901.744 1693.28 904.229L1691.41 913.641L1694.01 915.017L1699.15 917.744C1713.55 925.394 1725.75 937.412 1734.4 952.519C1743.36 968.013 1748.05 985.992 1748.05 1004.53Z" fill="#ED671C"/>
<g opacity="0.2">
<path d="M1696.06 1092.88C1685.58 1097.87 1674.42 1100.41 1662.93 1100.41V624.65C1680.1 624.65 1694.07 640.385 1694.07 659.715V896.579C1694.07 899.162 1693.81 901.744 1693.32 904.229L1691.46 913.641L1694.05 915.017L1699.19 917.744C1713.59 925.394 1725.79 937.412 1734.45 952.519C1743.34 967.989 1748.03 985.968 1748.03 1004.5C1748.03 1015.02 1746.55 1025.28 1743.62 1035.1C1743.13 1036.74 1742.59 1038.36 1742.03 1039.98C1741.82 1040.6 1741.58 1041.21 1741.37 1041.81C1737.08 1053.23 1730.93 1063.48 1723.11 1072.29C1715.31 1081.12 1706.2 1088.05 1696.06 1092.88Z" fill="#231F20"/>
<path d="M1771.63 1004.53C1771.63 1021.06 1768.75 1037.08 1763.08 1052.19C1757.59 1066.76 1749.77 1079.87 1739.78 1091.09C1729.79 1102.34 1718.18 1111.14 1705.24 1117.32C1691.82 1123.72 1677.59 1126.95 1662.91 1126.95V1112.47C1715.84 1112.47 1758.77 1064.13 1758.77 1004.53C1758.77 961.376 1736.29 924.139 1703.78 906.86C1704.42 903.554 1704.79 900.127 1704.79 896.579V527.611C1704.79 501.572 1686.03 480.48 1662.93 480.48V466C1670.3 466 1677.48 467.641 1684.23 470.851C1690.75 473.964 1696.6 478.404 1701.61 484.051C1706.63 489.699 1710.57 496.287 1713.34 503.623C1716.19 511.225 1717.64 519.31 1717.64 527.611V896.603C1717.64 897.303 1717.62 898.003 1717.6 898.727C1732.37 908.404 1744.92 921.87 1754.27 938.16C1765.63 957.901 1771.63 980.875 1771.63 1004.53Z" fill="#231F20"/>
</g>
<path d="M1596.65 882.823H1542" stroke="#231F20" stroke-width="15" stroke-miterlimit="10" stroke-linecap="round"/>
<path d="M1596.65 862.527H1569.32" stroke="#231F20" stroke-width="15" stroke-miterlimit="10" stroke-linecap="round"/>
<path d="M1596.65 842.232H1542" stroke="#231F20" stroke-width="15" stroke-miterlimit="10" stroke-linecap="round"/>
<path d="M1596.65 821.935H1569.32" stroke="#231F20" stroke-width="15" stroke-miterlimit="10" stroke-linecap="round"/>
<path d="M1596.65 801.664H1542" stroke="#231F20" stroke-width="15" stroke-miterlimit="10" stroke-linecap="round"/>
<path d="M1596.65 781.369H1569.32" stroke="#231F20" stroke-width="15" stroke-miterlimit="10" stroke-linecap="round"/>
<path d="M1596.65 761.073H1542" stroke="#231F20" stroke-width="15" stroke-miterlimit="10" stroke-linecap="round"/>
<path d="M1596.65 740.802H1569.32" stroke="#231F20" stroke-width="15" stroke-miterlimit="10" stroke-linecap="round"/>
<path d="M1596.65 720.505H1542" stroke="#231F20" stroke-width="15" stroke-miterlimit="10" stroke-linecap="round"/>
<path d="M1596.65 700.209H1569.32" stroke="#231F20" stroke-width="15" stroke-miterlimit="10" stroke-linecap="round"/>
<path d="M1596.65 679.938H1542" stroke="#231F20" stroke-width="15" stroke-miterlimit="10" stroke-linecap="round"/>
<path d="M1596.65 659.642H1569.32" stroke="#231F20" stroke-width="15" stroke-miterlimit="10" stroke-linecap="round"/>
<path d="M1596.65 639.346H1542" stroke="#231F20" stroke-width="15" stroke-miterlimit="10" stroke-linecap="round"/>
<path d="M1596.65 619.075H1569.32" stroke="#231F20" stroke-width="15" stroke-miterlimit="10" stroke-linecap="round"/>
<path d="M1596.65 598.779H1542" stroke="#231F20" stroke-width="15" stroke-miterlimit="10" stroke-linecap="round"/>
<path d="M1596.65 578.484H1569.32" stroke="#231F20" stroke-width="15" stroke-miterlimit="10" stroke-linecap="round"/>
<path d="M1596.65 558.211H1542" stroke="#231F20" stroke-width="15" stroke-miterlimit="10" stroke-linecap="round"/>
<path d="M1596.65 537.916H1569.32" stroke="#231F20" stroke-width="15" stroke-miterlimit="10" stroke-linecap="round"/>
<path d="M1596.65 517.62H1542" stroke="#231F20" stroke-width="15" stroke-miterlimit="10" stroke-linecap="round"/>
</g>
<defs>
<clipPath id="clip0_503_126">
<rect width="1914" height="1830" fill="white"/>
</clipPath>
</defs>
</svg>
