<svg width="1914" height="1830" viewBox="0 0 1914 1830" fill="none" xmlns="http://www.w3.org/2000/svg">
<g clip-path="url(#clip0_503_126)">
<path d="M2422 -281H-53V2027H2422V-281Z" fill="#FFDBAD"/>
<path d="M1914.43 3822C3050.71 3822 3971.86 3049.26 3971.86 2096.04C3971.86 1142.81 3050.71 370.072 1914.43 370.072C778.142 370.072 -143 1142.81 -143 2096.04C-143 3049.26 778.142 3822 1914.43 3822Z" fill="#FFD299"/>
<path d="M1802.43 1516.55C1793.52 1503.33 1781.54 1492.39 1767.46 1484.51C1767.48 1483.94 1767.5 1483.37 1767.5 1482.79V1183.05C1767.5 1176.31 1766.11 1169.74 1763.39 1163.57C1760.75 1157.61 1756.99 1152.25 1752.21 1147.67C1747.43 1143.08 1741.85 1139.47 1735.64 1136.94C1729.2 1134.33 1722.35 1133 1715.32 1133C1708.29 1133 1701.45 1134.33 1695.01 1136.94C1688.8 1139.47 1683.22 1143.08 1678.44 1147.67C1673.65 1152.25 1669.89 1157.61 1667.26 1163.57C1664.54 1169.74 1663.15 1176.31 1663.15 1183.05V1482.82C1663.15 1483.39 1663.17 1483.96 1663.19 1484.55C1649.11 1492.41 1637.13 1503.35 1628.22 1516.59C1617.39 1532.66 1611.65 1551.31 1611.65 1570.54C1611.65 1583.97 1614.39 1596.99 1619.8 1609.26C1625.01 1621.1 1632.49 1631.75 1642.02 1640.87C1651.54 1650 1662.62 1657.16 1674.96 1662.18C1687.75 1667.37 1701.32 1670 1715.32 1670C1729.32 1670 1742.89 1667.37 1755.69 1662.18C1768.03 1657.16 1779.13 1650 1788.63 1640.87C1798.15 1631.73 1805.61 1621.1 1810.85 1609.26C1816.26 1596.99 1819 1583.97 1819 1570.54C1818.98 1551.29 1813.26 1532.62 1802.43 1516.55ZM1715.3 1658.2C1664.82 1658.2 1623.89 1618.93 1623.89 1570.5C1623.89 1535.45 1645.33 1505.19 1676.33 1491.16C1675.72 1488.47 1675.37 1485.69 1675.37 1482.8V1183.05C1675.37 1161.9 1693.25 1144.76 1715.28 1144.76C1737.31 1144.76 1755.2 1161.9 1755.2 1183.05V1482.82C1755.2 1485.69 1754.87 1488.49 1754.24 1491.18C1785.24 1505.21 1806.68 1535.47 1806.68 1570.52C1806.72 1618.93 1765.8 1658.2 1715.3 1658.2Z" fill="#BC1C1C"/>
<path d="M1796.5 1570.5C1796.5 1579.05 1795.09 1587.38 1792.29 1595.36C1791.82 1596.69 1791.31 1598.01 1790.78 1599.32C1790.57 1599.83 1790.35 1600.32 1790.14 1600.81C1786.06 1610.09 1780.19 1618.42 1772.73 1625.57C1765.27 1632.73 1756.59 1638.36 1746.92 1642.28C1736.93 1646.34 1726.28 1648.39 1715.33 1648.39C1704.37 1648.39 1693.72 1646.34 1683.73 1642.28C1674.06 1638.36 1665.38 1632.73 1657.92 1625.57C1650.46 1618.42 1644.59 1610.09 1640.51 1600.81C1640.28 1600.32 1640.08 1599.81 1639.87 1599.32C1639.32 1598.01 1638.83 1596.69 1638.36 1595.36C1635.56 1587.38 1634.13 1579.05 1634.13 1570.5C1634.13 1555.44 1638.61 1540.84 1647.09 1528.27C1655.36 1516.02 1666.97 1506.23 1680.71 1500.02L1685.61 1497.8L1688.08 1496.69L1686.31 1489.04C1685.84 1487 1685.59 1484.92 1685.59 1482.82V1290.38C1685.59 1274.67 1698.91 1261.89 1715.28 1261.89C1731.65 1261.89 1744.98 1274.67 1744.98 1290.38V1482.81C1744.98 1484.9 1744.73 1487 1744.26 1489.02L1742.49 1496.67L1744.96 1497.78L1749.86 1500C1763.6 1506.21 1775.23 1515.98 1783.48 1528.25C1792.02 1540.84 1796.5 1555.44 1796.5 1570.5Z" fill="#ED671C"/>
<g opacity="0.2">
<path d="M1746.92 1642.28C1736.93 1646.34 1726.28 1648.39 1715.33 1648.39V1261.89C1731.7 1261.89 1745.02 1274.67 1745.02 1290.38V1482.81C1745.02 1484.9 1744.78 1487 1744.31 1489.02L1742.53 1496.67L1745 1497.78L1749.9 1500C1763.64 1506.21 1775.27 1515.98 1783.52 1528.25C1792 1540.82 1796.48 1555.42 1796.48 1570.48C1796.48 1579.03 1795.07 1587.36 1792.27 1595.34C1791.8 1596.68 1791.29 1597.99 1790.76 1599.3C1790.55 1599.81 1790.33 1600.3 1790.12 1600.79C1786.04 1610.07 1780.17 1618.4 1772.71 1625.55C1765.27 1632.73 1756.59 1638.36 1746.92 1642.28Z" fill="#231F20"/>
<path d="M1818.98 1570.5C1818.98 1583.93 1816.24 1596.95 1810.83 1609.22C1805.59 1621.06 1798.13 1631.71 1788.61 1640.83C1779.09 1649.96 1768.01 1657.12 1755.67 1662.14C1742.87 1667.33 1729.3 1669.96 1715.3 1669.96V1658.2C1765.78 1658.2 1806.72 1618.93 1806.72 1570.5C1806.72 1535.45 1785.28 1505.19 1754.28 1491.16C1754.89 1488.47 1755.24 1485.69 1755.24 1482.8V1183.05C1755.24 1161.9 1737.36 1144.76 1715.32 1144.76V1133C1722.35 1133 1729.2 1134.33 1735.64 1136.94C1741.85 1139.47 1747.43 1143.08 1752.21 1147.67C1757 1152.25 1760.76 1157.61 1763.39 1163.57C1766.11 1169.74 1767.5 1176.31 1767.5 1183.05V1482.82C1767.5 1483.39 1767.48 1483.96 1767.46 1484.55C1781.54 1492.41 1793.52 1503.35 1802.43 1516.59C1813.26 1532.62 1818.98 1551.29 1818.98 1570.5Z" fill="#231F20"/>
</g>
<path d="M1652.11 1471.63H1600" stroke="#231F20" stroke-width="15" stroke-miterlimit="10" stroke-linecap="round"/>
<path d="M1652.11 1455.14H1626.06" stroke="#231F20" stroke-width="15" stroke-miterlimit="10" stroke-linecap="round"/>
<path d="M1652.11 1438.65H1600" stroke="#231F20" stroke-width="15" stroke-miterlimit="10" stroke-linecap="round"/>
<path d="M1652.11 1422.16H1626.06" stroke="#231F20" stroke-width="15" stroke-miterlimit="10" stroke-linecap="round"/>
<path d="M1652.11 1405.69H1600" stroke="#231F20" stroke-width="15" stroke-miterlimit="10" stroke-linecap="round"/>
<path d="M1652.11 1389.21H1626.06" stroke="#231F20" stroke-width="15" stroke-miterlimit="10" stroke-linecap="round"/>
<path d="M1652.11 1372.72H1600" stroke="#231F20" stroke-width="15" stroke-miterlimit="10" stroke-linecap="round"/>
<path d="M1652.11 1356.25H1626.06" stroke="#231F20" stroke-width="15" stroke-miterlimit="10" stroke-linecap="round"/>
<path d="M1652.11 1339.76H1600" stroke="#231F20" stroke-width="15" stroke-miterlimit="10" stroke-linecap="round"/>
<path d="M1652.11 1323.27H1626.06" stroke="#231F20" stroke-width="15" stroke-miterlimit="10" stroke-linecap="round"/>
<path d="M1652.11 1306.8H1600" stroke="#231F20" stroke-width="15" stroke-miterlimit="10" stroke-linecap="round"/>
<path d="M1652.11 1290.32H1626.06" stroke="#231F20" stroke-width="15" stroke-miterlimit="10" stroke-linecap="round"/>
<path d="M1652.11 1273.83H1600" stroke="#231F20" stroke-width="15" stroke-miterlimit="10" stroke-linecap="round"/>
<path d="M1652.11 1257.36H1626.06" stroke="#231F20" stroke-width="15" stroke-miterlimit="10" stroke-linecap="round"/>
<path d="M1652.11 1240.87H1600" stroke="#231F20" stroke-width="15" stroke-miterlimit="10" stroke-linecap="round"/>
<path d="M1652.11 1224.38H1626.06" stroke="#231F20" stroke-width="15" stroke-miterlimit="10" stroke-linecap="round"/>
<path d="M1652.11 1207.91H1600" stroke="#231F20" stroke-width="15" stroke-miterlimit="10" stroke-linecap="round"/>
<path d="M1652.11 1191.42H1626.06" stroke="#231F20" stroke-width="15" stroke-miterlimit="10" stroke-linecap="round"/>
<path d="M1652.11 1174.94H1600" stroke="#231F20" stroke-width="15" stroke-miterlimit="10" stroke-linecap="round"/>
</g>
<defs>
<clipPath id="clip0_503_126">
<rect width="1914" height="1830" fill="white"/>
</clipPath>
</defs>
</svg>
