<svg width="605" height="329" viewBox="0 0 605 329" fill="none" xmlns="http://www.w3.org/2000/svg">
<path fill-rule="evenodd" clip-rule="evenodd" d="M0 0V328H605V0H0V0Z" fill="#E0F7FA"/>
<path d="M340.915 286.253C401.864 286.253 451.272 241.842 451.272 187.058C451.272 132.274 401.864 87.8633 340.915 87.8633C279.966 87.8633 230.558 132.274 230.558 187.058C230.558 241.842 279.966 286.253 340.915 286.253Z" fill="white"/>
<path d="M183 267C248.722 267 302 215.737 302 152.5C302 89.2634 248.722 38 183 38C117.278 38 64 89.2634 64 152.5C64 215.737 117.278 267 183 267Z" fill="#EFDE43"/>
<path d="M391.752 201.937C452.701 201.937 502.11 157.526 502.11 102.742C502.11 47.9588 452.701 3.54785 391.752 3.54785C330.804 3.54785 281.395 47.9588 281.395 102.742C281.395 157.526 330.804 201.937 391.752 201.937Z" fill="white"/>
<path d="M454.995 236.655C515.944 236.655 565.352 192.244 565.352 137.46C565.352 82.6766 515.944 38.2656 454.995 38.2656C394.046 38.2656 344.638 82.6766 344.638 137.46C344.638 192.244 394.046 236.655 454.995 236.655Z" fill="white"/>
<path fill-rule="evenodd" clip-rule="evenodd" d="M515.752 130.02C501.26 130.02 486.909 132.586 473.52 137.571C460.131 142.556 447.965 149.863 437.718 159.074C427.47 168.285 419.341 179.22 413.795 191.255C408.249 203.29 405.395 216.189 405.395 229.216C405.395 242.242 408.249 255.141 413.795 267.176C419.341 279.211 427.47 290.146 437.718 299.358C447.965 308.569 460.131 315.876 473.52 320.861C486.909 325.846 501.26 328.411 515.752 328.411C533.128 328.391 550.252 324.683 565.732 317.589C581.212 310.495 594.609 300.217 604.834 287.589V170.874C594.613 158.241 581.217 147.956 565.737 140.857C550.257 133.758 533.131 130.045 515.752 130.021V130.02Z" fill="white"/>
</svg>
