<svg width="605" height="329" viewBox="0 0 605 329" fill="none" xmlns="http://www.w3.org/2000/svg">
<path fill-rule="evenodd" clip-rule="evenodd" d="M0 0V328H605V0H0V0Z" fill="#E0F7FA"/>
<path d="M436.357 280.389C497.306 280.389 546.715 235.978 546.715 181.195C546.715 126.411 497.306 82 436.357 82C375.409 82 326 126.411 326 181.195C326 235.978 375.409 280.389 436.357 280.389Z" fill="white"/>
<path d="M261 286C326.722 286 380 234.737 380 171.5C380 108.263 326.722 57 261 57C195.278 57 142 108.263 142 171.5C142 234.737 195.278 286 261 286Z" fill="#EFDE43"/>
<path d="M441.357 187.389C502.306 187.389 551.715 142.978 551.715 88.1946C551.715 33.4109 502.306 9 441.357 9C380.409 9 331 33.4109 331 88.1946C331 142.978 380.409 187.389 441.357 187.389Z" fill="white"/>
<path d="M454.995 236.655C515.944 236.655 565.352 192.244 565.352 137.46C565.352 82.6766 515.944 38.2656 454.995 38.2656C394.046 38.2656 344.638 82.6766 344.638 137.46C344.638 192.244 394.046 236.655 454.995 236.655Z" fill="white"/>
<path fill-rule="evenodd" clip-rule="evenodd" d="M515.752 130.02C501.26 130.02 486.909 132.586 473.52 137.571C460.131 142.556 447.965 149.863 437.718 159.074C427.47 168.285 419.341 179.22 413.795 191.255C408.249 203.29 405.395 216.189 405.395 229.216C405.395 242.242 408.249 255.141 413.795 267.176C419.341 279.211 427.47 290.146 437.718 299.358C447.965 308.569 460.131 315.876 473.52 320.861C486.909 325.846 501.26 328.411 515.752 328.411C533.128 328.391 550.252 324.683 565.732 317.589C581.212 310.495 594.609 300.217 604.834 287.589V170.874C594.613 158.241 581.217 147.956 565.737 140.857C550.257 133.758 533.131 130.045 515.752 130.021V130.02Z" fill="white"/>
</svg>
